<mxfile host="app.diagrams.net" agent="Mozilla/5.0 (Windows NT 10.0; Win64; x64) AppleWebKit/537.36 (KHTML, like Gecko) Chrome/140.0.0.0 Safari/537.36" version="28.2.5">
  <diagram name="Pagina-1" id="stsg-VHXCKW48UEf2oJJ">
    <mxGraphModel dx="772" dy="390" grid="1" gridSize="10" guides="1" tooltips="1" connect="1" arrows="1" fold="1" page="1" pageScale="1" pageWidth="827" pageHeight="1169" math="0" shadow="0">
      <root>
        <mxCell id="0" />
        <mxCell id="1" parent="0" />
        <mxCell id="Z68hn9O-Tgvw7mRsMY7y-1" value="&lt;font style=&quot;font-size: 40px;&quot;&gt;+&lt;/font&gt;" style="ellipse;whiteSpace=wrap;html=1;aspect=fixed;" vertex="1" parent="1">
          <mxGeometry x="470" y="605" width="50" height="50" as="geometry" />
        </mxCell>
        <mxCell id="Z68hn9O-Tgvw7mRsMY7y-2" value="&lt;font style=&quot;font-size: 40px;&quot;&gt;+&lt;/font&gt;" style="ellipse;whiteSpace=wrap;html=1;aspect=fixed;" vertex="1" parent="1">
          <mxGeometry x="590" y="605" width="50" height="50" as="geometry" />
        </mxCell>
        <mxCell id="Z68hn9O-Tgvw7mRsMY7y-3" value="&lt;font style=&quot;font-size: 40px;&quot;&gt;+&lt;/font&gt;" style="ellipse;whiteSpace=wrap;html=1;aspect=fixed;" vertex="1" parent="1">
          <mxGeometry x="590" y="605" width="50" height="50" as="geometry" />
        </mxCell>
        <mxCell id="Z68hn9O-Tgvw7mRsMY7y-4" value="&lt;font style=&quot;font-size: 40px;&quot;&gt;+&lt;/font&gt;" style="ellipse;whiteSpace=wrap;html=1;aspect=fixed;" vertex="1" parent="1">
          <mxGeometry x="590" y="605" width="50" height="50" as="geometry" />
        </mxCell>
        <mxCell id="Z68hn9O-Tgvw7mRsMY7y-5" value="&lt;font style=&quot;font-size: 40px;&quot;&gt;+&lt;/font&gt;" style="ellipse;whiteSpace=wrap;html=1;aspect=fixed;" vertex="1" parent="1">
          <mxGeometry x="590" y="605" width="50" height="50" as="geometry" />
        </mxCell>
        <mxCell id="Z68hn9O-Tgvw7mRsMY7y-6" value="&lt;font style=&quot;font-size: 40px;&quot;&gt;+&lt;/font&gt;" style="ellipse;whiteSpace=wrap;html=1;aspect=fixed;" vertex="1" parent="1">
          <mxGeometry x="710" y="605" width="50" height="50" as="geometry" />
        </mxCell>
        <mxCell id="Z68hn9O-Tgvw7mRsMY7y-7" value="&lt;font style=&quot;font-size: 40px;&quot;&gt;+&lt;/font&gt;" style="ellipse;whiteSpace=wrap;html=1;aspect=fixed;" vertex="1" parent="1">
          <mxGeometry x="830" y="605" width="50" height="50" as="geometry" />
        </mxCell>
        <mxCell id="Z68hn9O-Tgvw7mRsMY7y-8" value="&lt;font style=&quot;font-size: 40px;&quot;&gt;+&lt;/font&gt;" style="ellipse;whiteSpace=wrap;html=1;aspect=fixed;" vertex="1" parent="1">
          <mxGeometry x="950" y="605" width="50" height="50" as="geometry" />
        </mxCell>
        <mxCell id="Z68hn9O-Tgvw7mRsMY7y-9" value="&lt;font style=&quot;font-size: 40px;&quot;&gt;+&lt;/font&gt;" style="ellipse;whiteSpace=wrap;html=1;aspect=fixed;" vertex="1" parent="1">
          <mxGeometry x="1190" y="605" width="50" height="50" as="geometry" />
        </mxCell>
        <mxCell id="Z68hn9O-Tgvw7mRsMY7y-10" value="&lt;font style=&quot;font-size: 40px;&quot;&gt;+&lt;/font&gt;" style="ellipse;whiteSpace=wrap;html=1;aspect=fixed;" vertex="1" parent="1">
          <mxGeometry x="1072" y="605" width="50" height="50" as="geometry" />
        </mxCell>
        <mxCell id="Z68hn9O-Tgvw7mRsMY7y-11" value="" style="ellipse;whiteSpace=wrap;html=1;aspect=fixed;" vertex="1" parent="1">
          <mxGeometry x="350" y="475" width="50" height="50" as="geometry" />
        </mxCell>
        <mxCell id="Z68hn9O-Tgvw7mRsMY7y-12" value="&lt;font style=&quot;font-size: 60px;&quot;&gt;*&lt;/font&gt;" style="text;html=1;align=center;verticalAlign=middle;whiteSpace=wrap;rounded=0;" vertex="1" parent="1">
          <mxGeometry x="345" y="498" width="60" height="30" as="geometry" />
        </mxCell>
        <mxCell id="Z68hn9O-Tgvw7mRsMY7y-13" value="" style="ellipse;whiteSpace=wrap;html=1;aspect=fixed;" vertex="1" parent="1">
          <mxGeometry x="470" y="475" width="50" height="50" as="geometry" />
        </mxCell>
        <mxCell id="Z68hn9O-Tgvw7mRsMY7y-14" value="&lt;font style=&quot;font-size: 60px;&quot;&gt;*&lt;/font&gt;" style="text;html=1;align=center;verticalAlign=middle;whiteSpace=wrap;rounded=0;" vertex="1" parent="1">
          <mxGeometry x="465" y="498" width="60" height="30" as="geometry" />
        </mxCell>
        <mxCell id="Z68hn9O-Tgvw7mRsMY7y-15" value="" style="ellipse;whiteSpace=wrap;html=1;aspect=fixed;" vertex="1" parent="1">
          <mxGeometry x="830" y="475" width="50" height="50" as="geometry" />
        </mxCell>
        <mxCell id="Z68hn9O-Tgvw7mRsMY7y-16" value="&lt;font style=&quot;font-size: 60px;&quot;&gt;*&lt;/font&gt;" style="text;html=1;align=center;verticalAlign=middle;whiteSpace=wrap;rounded=0;" vertex="1" parent="1">
          <mxGeometry x="825" y="498" width="60" height="30" as="geometry" />
        </mxCell>
        <mxCell id="Z68hn9O-Tgvw7mRsMY7y-17" value="" style="ellipse;whiteSpace=wrap;html=1;aspect=fixed;" vertex="1" parent="1">
          <mxGeometry x="710" y="475" width="50" height="50" as="geometry" />
        </mxCell>
        <mxCell id="Z68hn9O-Tgvw7mRsMY7y-18" value="&lt;font style=&quot;font-size: 60px;&quot;&gt;*&lt;/font&gt;" style="text;html=1;align=center;verticalAlign=middle;whiteSpace=wrap;rounded=0;" vertex="1" parent="1">
          <mxGeometry x="705" y="498" width="60" height="30" as="geometry" />
        </mxCell>
        <mxCell id="Z68hn9O-Tgvw7mRsMY7y-19" value="" style="ellipse;whiteSpace=wrap;html=1;aspect=fixed;" vertex="1" parent="1">
          <mxGeometry x="590" y="475" width="50" height="50" as="geometry" />
        </mxCell>
        <mxCell id="Z68hn9O-Tgvw7mRsMY7y-20" value="&lt;font style=&quot;font-size: 60px;&quot;&gt;*&lt;/font&gt;" style="text;html=1;align=center;verticalAlign=middle;whiteSpace=wrap;rounded=0;" vertex="1" parent="1">
          <mxGeometry x="585" y="498" width="60" height="30" as="geometry" />
        </mxCell>
        <mxCell id="Z68hn9O-Tgvw7mRsMY7y-21" value="" style="ellipse;whiteSpace=wrap;html=1;aspect=fixed;" vertex="1" parent="1">
          <mxGeometry x="950" y="472" width="50" height="50" as="geometry" />
        </mxCell>
        <mxCell id="Z68hn9O-Tgvw7mRsMY7y-22" value="&lt;font style=&quot;font-size: 60px;&quot;&gt;*&lt;/font&gt;" style="text;html=1;align=center;verticalAlign=middle;whiteSpace=wrap;rounded=0;" vertex="1" parent="1">
          <mxGeometry x="945" y="495" width="60" height="30" as="geometry" />
        </mxCell>
        <mxCell id="Z68hn9O-Tgvw7mRsMY7y-29" value="" style="endArrow=classic;html=1;rounded=0;entryX=0.5;entryY=1;entryDx=0;entryDy=0;exitX=1;exitY=0.5;exitDx=0;exitDy=0;" edge="1" parent="1" source="Z68hn9O-Tgvw7mRsMY7y-242">
          <mxGeometry width="50" height="50" relative="1" as="geometry">
            <mxPoint x="100" y="395" as="sourcePoint" />
            <mxPoint x="420" y="395" as="targetPoint" />
          </mxGeometry>
        </mxCell>
        <mxCell id="Z68hn9O-Tgvw7mRsMY7y-30" value="" style="endArrow=classic;html=1;rounded=0;exitX=0.5;exitY=0;exitDx=0;exitDy=0;entryX=0.002;entryY=0.146;entryDx=0;entryDy=0;entryPerimeter=0;" edge="1" parent="1">
          <mxGeometry width="50" height="50" relative="1" as="geometry">
            <mxPoint x="455" y="395" as="sourcePoint" />
            <mxPoint x="540.1199999999999" y="394.38" as="targetPoint" />
          </mxGeometry>
        </mxCell>
        <mxCell id="Z68hn9O-Tgvw7mRsMY7y-31" value="" style="endArrow=classic;html=1;rounded=0;exitX=0.5;exitY=0;exitDx=0;exitDy=0;entryX=0.5;entryY=1;entryDx=0;entryDy=0;" edge="1" parent="1" target="Z68hn9O-Tgvw7mRsMY7y-193">
          <mxGeometry width="50" height="50" relative="1" as="geometry">
            <mxPoint x="575" y="394.5" as="sourcePoint" />
            <mxPoint x="655" y="395" as="targetPoint" />
          </mxGeometry>
        </mxCell>
        <mxCell id="Z68hn9O-Tgvw7mRsMY7y-32" value="" style="endArrow=classic;html=1;rounded=0;exitX=0.5;exitY=0;exitDx=0;exitDy=0;entryX=0.5;entryY=1;entryDx=0;entryDy=0;" edge="1" parent="1" source="Z68hn9O-Tgvw7mRsMY7y-23">
          <mxGeometry width="50" height="50" relative="1" as="geometry">
            <mxPoint x="415" y="345" as="sourcePoint" />
            <mxPoint x="565" y="335" as="targetPoint" />
          </mxGeometry>
        </mxCell>
        <mxCell id="Z68hn9O-Tgvw7mRsMY7y-33" value="" style="endArrow=classic;html=1;rounded=0;exitX=0.5;exitY=0;exitDx=0;exitDy=0;entryX=0;entryY=0.15;entryDx=0;entryDy=0;entryPerimeter=0;" edge="1" parent="1">
          <mxGeometry width="50" height="50" relative="1" as="geometry">
            <mxPoint x="815" y="394.5" as="sourcePoint" />
            <mxPoint x="900" y="394.5" as="targetPoint" />
          </mxGeometry>
        </mxCell>
        <mxCell id="Z68hn9O-Tgvw7mRsMY7y-34" value="" style="endArrow=classic;html=1;rounded=0;exitX=0.5;exitY=0;exitDx=0;exitDy=0;entryX=0.009;entryY=0.135;entryDx=0;entryDy=0;entryPerimeter=0;" edge="1" parent="1">
          <mxGeometry width="50" height="50" relative="1" as="geometry">
            <mxPoint x="935" y="394.5" as="sourcePoint" />
            <mxPoint x="1012.54" y="394.05000000000007" as="targetPoint" />
          </mxGeometry>
        </mxCell>
        <mxCell id="Z68hn9O-Tgvw7mRsMY7y-35" value="" style="endArrow=classic;html=1;rounded=0;entryX=0.5;entryY=0;entryDx=0;entryDy=0;" edge="1" parent="1" target="Z68hn9O-Tgvw7mRsMY7y-11">
          <mxGeometry width="50" height="50" relative="1" as="geometry">
            <mxPoint x="374.5" y="395" as="sourcePoint" />
            <mxPoint x="374.5" y="465" as="targetPoint" />
          </mxGeometry>
        </mxCell>
        <mxCell id="Z68hn9O-Tgvw7mRsMY7y-36" value="" style="endArrow=classic;html=1;rounded=0;entryX=0.5;entryY=0;entryDx=0;entryDy=0;" edge="1" parent="1">
          <mxGeometry width="50" height="50" relative="1" as="geometry">
            <mxPoint x="494.5" y="395" as="sourcePoint" />
            <mxPoint x="495" y="475" as="targetPoint" />
          </mxGeometry>
        </mxCell>
        <mxCell id="Z68hn9O-Tgvw7mRsMY7y-37" value="" style="endArrow=classic;html=1;rounded=0;entryX=0.5;entryY=0;entryDx=0;entryDy=0;" edge="1" parent="1">
          <mxGeometry width="50" height="50" relative="1" as="geometry">
            <mxPoint x="614.5" y="395" as="sourcePoint" />
            <mxPoint x="615" y="475" as="targetPoint" />
          </mxGeometry>
        </mxCell>
        <mxCell id="Z68hn9O-Tgvw7mRsMY7y-38" value="" style="endArrow=classic;html=1;rounded=0;entryX=0.5;entryY=0;entryDx=0;entryDy=0;" edge="1" parent="1">
          <mxGeometry width="50" height="50" relative="1" as="geometry">
            <mxPoint x="734.5" y="395" as="sourcePoint" />
            <mxPoint x="735" y="475" as="targetPoint" />
          </mxGeometry>
        </mxCell>
        <mxCell id="Z68hn9O-Tgvw7mRsMY7y-39" value="" style="endArrow=classic;html=1;rounded=0;entryX=0.5;entryY=0;entryDx=0;entryDy=0;" edge="1" parent="1">
          <mxGeometry width="50" height="50" relative="1" as="geometry">
            <mxPoint x="854.5" y="395" as="sourcePoint" />
            <mxPoint x="855" y="475" as="targetPoint" />
          </mxGeometry>
        </mxCell>
        <mxCell id="Z68hn9O-Tgvw7mRsMY7y-40" value="" style="endArrow=classic;html=1;rounded=0;entryX=0.5;entryY=0;entryDx=0;entryDy=0;" edge="1" parent="1">
          <mxGeometry width="50" height="50" relative="1" as="geometry">
            <mxPoint x="975" y="395" as="sourcePoint" />
            <mxPoint x="975.5" y="475" as="targetPoint" />
          </mxGeometry>
        </mxCell>
        <mxCell id="Z68hn9O-Tgvw7mRsMY7y-41" value="" style="ellipse;whiteSpace=wrap;html=1;aspect=fixed;" vertex="1" parent="1">
          <mxGeometry x="1072" y="475" width="50" height="50" as="geometry" />
        </mxCell>
        <mxCell id="Z68hn9O-Tgvw7mRsMY7y-42" value="&lt;font style=&quot;font-size: 60px;&quot;&gt;*&lt;/font&gt;" style="text;html=1;align=center;verticalAlign=middle;whiteSpace=wrap;rounded=0;" vertex="1" parent="1">
          <mxGeometry x="1067" y="498" width="60" height="30" as="geometry" />
        </mxCell>
        <mxCell id="Z68hn9O-Tgvw7mRsMY7y-43" value="" style="endArrow=classic;html=1;rounded=0;exitX=0.5;exitY=1;exitDx=0;exitDy=0;entryX=0;entryY=0.5;entryDx=0;entryDy=0;" edge="1" parent="1" source="Z68hn9O-Tgvw7mRsMY7y-12" target="Z68hn9O-Tgvw7mRsMY7y-1">
          <mxGeometry width="50" height="50" relative="1" as="geometry">
            <mxPoint x="685" y="675" as="sourcePoint" />
            <mxPoint x="735" y="625" as="targetPoint" />
            <Array as="points">
              <mxPoint x="375" y="630" />
            </Array>
          </mxGeometry>
        </mxCell>
        <mxCell id="Z68hn9O-Tgvw7mRsMY7y-44" value="" style="endArrow=classic;html=1;rounded=0;exitX=0.5;exitY=1;exitDx=0;exitDy=0;entryX=0.5;entryY=0;entryDx=0;entryDy=0;" edge="1" parent="1" source="Z68hn9O-Tgvw7mRsMY7y-14" target="Z68hn9O-Tgvw7mRsMY7y-1">
          <mxGeometry width="50" height="50" relative="1" as="geometry">
            <mxPoint x="685" y="675" as="sourcePoint" />
            <mxPoint x="735" y="625" as="targetPoint" />
          </mxGeometry>
        </mxCell>
        <mxCell id="Z68hn9O-Tgvw7mRsMY7y-45" value="" style="endArrow=classic;html=1;rounded=0;exitX=0.5;exitY=1;exitDx=0;exitDy=0;entryX=0.5;entryY=0;entryDx=0;entryDy=0;" edge="1" parent="1">
          <mxGeometry width="50" height="50" relative="1" as="geometry">
            <mxPoint x="614.5" y="528" as="sourcePoint" />
            <mxPoint x="614.5" y="605" as="targetPoint" />
          </mxGeometry>
        </mxCell>
        <mxCell id="Z68hn9O-Tgvw7mRsMY7y-46" value="" style="endArrow=classic;html=1;rounded=0;exitX=0.5;exitY=1;exitDx=0;exitDy=0;entryX=0.5;entryY=0;entryDx=0;entryDy=0;" edge="1" parent="1">
          <mxGeometry width="50" height="50" relative="1" as="geometry">
            <mxPoint x="734.5" y="528" as="sourcePoint" />
            <mxPoint x="734.5" y="605" as="targetPoint" />
          </mxGeometry>
        </mxCell>
        <mxCell id="Z68hn9O-Tgvw7mRsMY7y-47" value="" style="endArrow=classic;html=1;rounded=0;exitX=0.5;exitY=1;exitDx=0;exitDy=0;entryX=0.5;entryY=0;entryDx=0;entryDy=0;" edge="1" parent="1">
          <mxGeometry width="50" height="50" relative="1" as="geometry">
            <mxPoint x="854.5" y="528" as="sourcePoint" />
            <mxPoint x="854.5" y="605" as="targetPoint" />
          </mxGeometry>
        </mxCell>
        <mxCell id="Z68hn9O-Tgvw7mRsMY7y-48" value="" style="endArrow=classic;html=1;rounded=0;exitX=0.5;exitY=1;exitDx=0;exitDy=0;entryX=0.5;entryY=0;entryDx=0;entryDy=0;" edge="1" parent="1">
          <mxGeometry width="50" height="50" relative="1" as="geometry">
            <mxPoint x="974.5" y="525" as="sourcePoint" />
            <mxPoint x="974.5" y="602" as="targetPoint" />
          </mxGeometry>
        </mxCell>
        <mxCell id="Z68hn9O-Tgvw7mRsMY7y-49" value="" style="endArrow=classic;html=1;rounded=0;exitX=1;exitY=0.5;exitDx=0;exitDy=0;" edge="1" parent="1" source="Z68hn9O-Tgvw7mRsMY7y-1">
          <mxGeometry width="50" height="50" relative="1" as="geometry">
            <mxPoint x="685" y="675" as="sourcePoint" />
            <mxPoint x="585" y="630" as="targetPoint" />
          </mxGeometry>
        </mxCell>
        <mxCell id="Z68hn9O-Tgvw7mRsMY7y-50" value="" style="endArrow=classic;html=1;rounded=0;exitX=1;exitY=0.5;exitDx=0;exitDy=0;" edge="1" parent="1">
          <mxGeometry width="50" height="50" relative="1" as="geometry">
            <mxPoint x="642.5" y="629.8" as="sourcePoint" />
            <mxPoint x="707.5" y="629.8" as="targetPoint" />
          </mxGeometry>
        </mxCell>
        <mxCell id="Z68hn9O-Tgvw7mRsMY7y-51" value="" style="endArrow=classic;html=1;rounded=0;exitX=1;exitY=0.5;exitDx=0;exitDy=0;" edge="1" parent="1">
          <mxGeometry width="50" height="50" relative="1" as="geometry">
            <mxPoint x="762.5" y="629.8" as="sourcePoint" />
            <mxPoint x="827.5" y="629.8" as="targetPoint" />
          </mxGeometry>
        </mxCell>
        <mxCell id="Z68hn9O-Tgvw7mRsMY7y-52" value="" style="endArrow=classic;html=1;rounded=0;exitX=1;exitY=0.5;exitDx=0;exitDy=0;" edge="1" parent="1">
          <mxGeometry width="50" height="50" relative="1" as="geometry">
            <mxPoint x="882.5" y="629.8" as="sourcePoint" />
            <mxPoint x="947.5" y="629.8" as="targetPoint" />
          </mxGeometry>
        </mxCell>
        <mxCell id="Z68hn9O-Tgvw7mRsMY7y-53" value="" style="endArrow=classic;html=1;rounded=0;exitX=1;exitY=0.5;exitDx=0;exitDy=0;" edge="1" parent="1">
          <mxGeometry width="50" height="50" relative="1" as="geometry">
            <mxPoint x="1002" y="629.8" as="sourcePoint" />
            <mxPoint x="1067" y="629.8" as="targetPoint" />
          </mxGeometry>
        </mxCell>
        <mxCell id="Z68hn9O-Tgvw7mRsMY7y-54" value="" style="ellipse;whiteSpace=wrap;html=1;aspect=fixed;" vertex="1" parent="1">
          <mxGeometry x="1190" y="475" width="50" height="50" as="geometry" />
        </mxCell>
        <mxCell id="Z68hn9O-Tgvw7mRsMY7y-55" value="&lt;font style=&quot;font-size: 60px;&quot;&gt;*&lt;/font&gt;" style="text;html=1;align=center;verticalAlign=middle;whiteSpace=wrap;rounded=0;" vertex="1" parent="1">
          <mxGeometry x="1185" y="498" width="60" height="30" as="geometry" />
        </mxCell>
        <mxCell id="Z68hn9O-Tgvw7mRsMY7y-56" value="" style="endArrow=classic;html=1;rounded=0;exitX=0.5;exitY=1;exitDx=0;exitDy=0;entryX=0.5;entryY=0;entryDx=0;entryDy=0;" edge="1" parent="1" source="Z68hn9O-Tgvw7mRsMY7y-55" target="Z68hn9O-Tgvw7mRsMY7y-9">
          <mxGeometry width="50" height="50" relative="1" as="geometry">
            <mxPoint x="1214.76" y="522" as="sourcePoint" />
            <mxPoint x="1214.76" y="599" as="targetPoint" />
          </mxGeometry>
        </mxCell>
        <mxCell id="Z68hn9O-Tgvw7mRsMY7y-57" value="" style="endArrow=classic;html=1;rounded=0;exitX=1;exitY=0.5;exitDx=0;exitDy=0;entryX=0;entryY=0.5;entryDx=0;entryDy=0;" edge="1" parent="1" source="Z68hn9O-Tgvw7mRsMY7y-10" target="Z68hn9O-Tgvw7mRsMY7y-9">
          <mxGeometry width="50" height="50" relative="1" as="geometry">
            <mxPoint x="625" y="465" as="sourcePoint" />
            <mxPoint x="675" y="415" as="targetPoint" />
          </mxGeometry>
        </mxCell>
        <mxCell id="Z68hn9O-Tgvw7mRsMY7y-59" value="" style="endArrow=classic;html=1;rounded=0;exitX=0.5;exitY=0;exitDx=0;exitDy=0;" edge="1" parent="1" source="Z68hn9O-Tgvw7mRsMY7y-26">
          <mxGeometry width="50" height="50" relative="1" as="geometry">
            <mxPoint x="635" y="485" as="sourcePoint" />
            <mxPoint x="925" y="335" as="targetPoint" />
          </mxGeometry>
        </mxCell>
        <mxCell id="Z68hn9O-Tgvw7mRsMY7y-62" value="" style="endArrow=classic;html=1;rounded=0;exitX=0.5;exitY=0;exitDx=0;exitDy=0;entryX=-0.02;entryY=0.159;entryDx=0;entryDy=0;entryPerimeter=0;" edge="1" parent="1">
          <mxGeometry width="50" height="50" relative="1" as="geometry">
            <mxPoint x="1175" y="395" as="sourcePoint" />
            <mxPoint x="1258.7999999999997" y="394.77" as="targetPoint" />
          </mxGeometry>
        </mxCell>
        <mxCell id="Z68hn9O-Tgvw7mRsMY7y-63" value="" style="endArrow=classic;html=1;rounded=0;entryX=0.5;entryY=0;entryDx=0;entryDy=0;" edge="1" parent="1" target="Z68hn9O-Tgvw7mRsMY7y-54">
          <mxGeometry width="50" height="50" relative="1" as="geometry">
            <mxPoint x="1215" y="395" as="sourcePoint" />
            <mxPoint x="1065" y="445" as="targetPoint" />
          </mxGeometry>
        </mxCell>
        <mxCell id="Z68hn9O-Tgvw7mRsMY7y-64" value="" style="endArrow=classic;html=1;rounded=0;exitX=0.5;exitY=1;exitDx=0;exitDy=0;entryX=0.5;entryY=0;entryDx=0;entryDy=0;" edge="1" parent="1" source="Z68hn9O-Tgvw7mRsMY7y-42" target="Z68hn9O-Tgvw7mRsMY7y-10">
          <mxGeometry width="50" height="50" relative="1" as="geometry">
            <mxPoint x="1095" y="585" as="sourcePoint" />
            <mxPoint x="1145" y="535" as="targetPoint" />
          </mxGeometry>
        </mxCell>
        <mxCell id="Z68hn9O-Tgvw7mRsMY7y-65" value="&lt;font style=&quot;font-size: 40px;&quot;&gt;+&lt;/font&gt;" style="ellipse;whiteSpace=wrap;html=1;aspect=fixed;" vertex="1" parent="1">
          <mxGeometry x="1310" y="605" width="50" height="50" as="geometry" />
        </mxCell>
        <mxCell id="Z68hn9O-Tgvw7mRsMY7y-66" value="" style="ellipse;whiteSpace=wrap;html=1;aspect=fixed;" vertex="1" parent="1">
          <mxGeometry x="1310" y="472" width="50" height="50" as="geometry" />
        </mxCell>
        <mxCell id="Z68hn9O-Tgvw7mRsMY7y-67" value="&lt;font style=&quot;font-size: 60px;&quot;&gt;*&lt;/font&gt;" style="text;html=1;align=center;verticalAlign=middle;whiteSpace=wrap;rounded=0;" vertex="1" parent="1">
          <mxGeometry x="1305" y="495" width="60" height="30" as="geometry" />
        </mxCell>
        <mxCell id="Z68hn9O-Tgvw7mRsMY7y-68" value="" style="endArrow=classic;html=1;rounded=0;exitX=0.5;exitY=1;exitDx=0;exitDy=0;entryX=0.5;entryY=0;entryDx=0;entryDy=0;" edge="1" parent="1" source="Z68hn9O-Tgvw7mRsMY7y-67" target="Z68hn9O-Tgvw7mRsMY7y-65">
          <mxGeometry width="50" height="50" relative="1" as="geometry">
            <mxPoint x="1334.76" y="519" as="sourcePoint" />
            <mxPoint x="1334.76" y="596" as="targetPoint" />
          </mxGeometry>
        </mxCell>
        <mxCell id="Z68hn9O-Tgvw7mRsMY7y-69" value="" style="endArrow=classic;html=1;rounded=0;exitX=1;exitY=0.5;exitDx=0;exitDy=0;entryX=0;entryY=0.5;entryDx=0;entryDy=0;" edge="1" parent="1" source="Z68hn9O-Tgvw7mRsMY7y-9" target="Z68hn9O-Tgvw7mRsMY7y-65">
          <mxGeometry width="50" height="50" relative="1" as="geometry">
            <mxPoint x="1315" y="565" as="sourcePoint" />
            <mxPoint x="1365" y="515" as="targetPoint" />
          </mxGeometry>
        </mxCell>
        <mxCell id="Z68hn9O-Tgvw7mRsMY7y-70" value="" style="endArrow=classic;html=1;rounded=0;exitX=0.5;exitY=0;exitDx=0;exitDy=0;entryX=0.5;entryY=0;entryDx=0;entryDy=0;" edge="1" parent="1" target="Z68hn9O-Tgvw7mRsMY7y-66">
          <mxGeometry width="50" height="50" relative="1" as="geometry">
            <mxPoint x="1295" y="395" as="sourcePoint" />
            <mxPoint x="1315" y="495" as="targetPoint" />
            <Array as="points">
              <mxPoint x="1335" y="395" />
            </Array>
          </mxGeometry>
        </mxCell>
        <mxCell id="Z68hn9O-Tgvw7mRsMY7y-72" value="" style="endArrow=classic;html=1;rounded=0;" edge="1" parent="1">
          <mxGeometry width="50" height="50" relative="1" as="geometry">
            <mxPoint x="325" y="545" as="sourcePoint" />
            <mxPoint x="350" y="515" as="targetPoint" />
          </mxGeometry>
        </mxCell>
        <mxCell id="Z68hn9O-Tgvw7mRsMY7y-73" value="B" style="edgeLabel;html=1;align=center;verticalAlign=middle;resizable=0;points=[];" connectable="0" vertex="1" parent="Z68hn9O-Tgvw7mRsMY7y-72">
          <mxGeometry x="-0.065" y="-4" relative="1" as="geometry">
            <mxPoint x="1" as="offset" />
          </mxGeometry>
        </mxCell>
        <mxCell id="Z68hn9O-Tgvw7mRsMY7y-74" value="&lt;font style=&quot;font-size: 14px;&quot;&gt;B0&lt;/font&gt;" style="edgeLabel;html=1;align=center;verticalAlign=middle;resizable=0;points=[];" connectable="0" vertex="1" parent="Z68hn9O-Tgvw7mRsMY7y-72">
          <mxGeometry x="0.0433" y="-3" relative="1" as="geometry">
            <mxPoint as="offset" />
          </mxGeometry>
        </mxCell>
        <mxCell id="Z68hn9O-Tgvw7mRsMY7y-75" value="" style="endArrow=classic;html=1;rounded=0;" edge="1" parent="1">
          <mxGeometry width="50" height="50" relative="1" as="geometry">
            <mxPoint x="445" y="545" as="sourcePoint" />
            <mxPoint x="470" y="515" as="targetPoint" />
          </mxGeometry>
        </mxCell>
        <mxCell id="Z68hn9O-Tgvw7mRsMY7y-76" value="&lt;font style=&quot;font-size: 15px;&quot;&gt;B1&lt;/font&gt;" style="edgeLabel;html=1;align=center;verticalAlign=middle;resizable=0;points=[];" connectable="0" vertex="1" parent="Z68hn9O-Tgvw7mRsMY7y-75">
          <mxGeometry x="-0.065" y="-4" relative="1" as="geometry">
            <mxPoint x="1" as="offset" />
          </mxGeometry>
        </mxCell>
        <mxCell id="Z68hn9O-Tgvw7mRsMY7y-77" value="" style="endArrow=classic;html=1;rounded=0;" edge="1" parent="1">
          <mxGeometry width="50" height="50" relative="1" as="geometry">
            <mxPoint x="575" y="552" as="sourcePoint" />
            <mxPoint x="600" y="522" as="targetPoint" />
          </mxGeometry>
        </mxCell>
        <mxCell id="Z68hn9O-Tgvw7mRsMY7y-78" value="&lt;font style=&quot;font-size: 15px;&quot;&gt;B2&lt;/font&gt;" style="edgeLabel;html=1;align=center;verticalAlign=middle;resizable=0;points=[];" connectable="0" vertex="1" parent="Z68hn9O-Tgvw7mRsMY7y-77">
          <mxGeometry x="-0.065" y="-4" relative="1" as="geometry">
            <mxPoint x="1" as="offset" />
          </mxGeometry>
        </mxCell>
        <mxCell id="Z68hn9O-Tgvw7mRsMY7y-79" value="" style="endArrow=classic;html=1;rounded=0;" edge="1" parent="1">
          <mxGeometry width="50" height="50" relative="1" as="geometry">
            <mxPoint x="696" y="552" as="sourcePoint" />
            <mxPoint x="721" y="522" as="targetPoint" />
          </mxGeometry>
        </mxCell>
        <mxCell id="Z68hn9O-Tgvw7mRsMY7y-80" value="&lt;font style=&quot;font-size: 15px;&quot;&gt;B3&lt;/font&gt;" style="edgeLabel;html=1;align=center;verticalAlign=middle;resizable=0;points=[];" connectable="0" vertex="1" parent="Z68hn9O-Tgvw7mRsMY7y-79">
          <mxGeometry x="-0.065" y="-4" relative="1" as="geometry">
            <mxPoint x="1" as="offset" />
          </mxGeometry>
        </mxCell>
        <mxCell id="Z68hn9O-Tgvw7mRsMY7y-81" value="" style="endArrow=classic;html=1;rounded=0;" edge="1" parent="1">
          <mxGeometry width="50" height="50" relative="1" as="geometry">
            <mxPoint x="815" y="552" as="sourcePoint" />
            <mxPoint x="840" y="522" as="targetPoint" />
          </mxGeometry>
        </mxCell>
        <mxCell id="Z68hn9O-Tgvw7mRsMY7y-82" value="&lt;font style=&quot;font-size: 15px;&quot;&gt;B4&lt;/font&gt;" style="edgeLabel;html=1;align=center;verticalAlign=middle;resizable=0;points=[];" connectable="0" vertex="1" parent="Z68hn9O-Tgvw7mRsMY7y-81">
          <mxGeometry x="-0.065" y="-4" relative="1" as="geometry">
            <mxPoint x="1" as="offset" />
          </mxGeometry>
        </mxCell>
        <mxCell id="Z68hn9O-Tgvw7mRsMY7y-83" value="" style="endArrow=classic;html=1;rounded=0;" edge="1" parent="1">
          <mxGeometry width="50" height="50" relative="1" as="geometry">
            <mxPoint x="935" y="545" as="sourcePoint" />
            <mxPoint x="960" y="515" as="targetPoint" />
          </mxGeometry>
        </mxCell>
        <mxCell id="Z68hn9O-Tgvw7mRsMY7y-84" value="&lt;font style=&quot;font-size: 15px;&quot;&gt;B5&lt;/font&gt;" style="edgeLabel;html=1;align=center;verticalAlign=middle;resizable=0;points=[];" connectable="0" vertex="1" parent="Z68hn9O-Tgvw7mRsMY7y-83">
          <mxGeometry x="-0.065" y="-4" relative="1" as="geometry">
            <mxPoint x="1" as="offset" />
          </mxGeometry>
        </mxCell>
        <mxCell id="Z68hn9O-Tgvw7mRsMY7y-85" value="" style="endArrow=classic;html=1;rounded=0;" edge="1" parent="1">
          <mxGeometry width="50" height="50" relative="1" as="geometry">
            <mxPoint x="1055" y="552" as="sourcePoint" />
            <mxPoint x="1080" y="522" as="targetPoint" />
          </mxGeometry>
        </mxCell>
        <mxCell id="Z68hn9O-Tgvw7mRsMY7y-86" value="&lt;font style=&quot;font-size: 15px;&quot;&gt;B6&lt;/font&gt;" style="edgeLabel;html=1;align=center;verticalAlign=middle;resizable=0;points=[];" connectable="0" vertex="1" parent="Z68hn9O-Tgvw7mRsMY7y-85">
          <mxGeometry x="-0.065" y="-4" relative="1" as="geometry">
            <mxPoint x="1" as="offset" />
          </mxGeometry>
        </mxCell>
        <mxCell id="Z68hn9O-Tgvw7mRsMY7y-87" value="" style="endArrow=classic;html=1;rounded=0;" edge="1" parent="1">
          <mxGeometry width="50" height="50" relative="1" as="geometry">
            <mxPoint x="1175" y="552" as="sourcePoint" />
            <mxPoint x="1200" y="522" as="targetPoint" />
          </mxGeometry>
        </mxCell>
        <mxCell id="Z68hn9O-Tgvw7mRsMY7y-88" value="&lt;font style=&quot;font-size: 15px;&quot;&gt;B7&lt;/font&gt;" style="edgeLabel;html=1;align=center;verticalAlign=middle;resizable=0;points=[];" connectable="0" vertex="1" parent="Z68hn9O-Tgvw7mRsMY7y-87">
          <mxGeometry x="-0.065" y="-4" relative="1" as="geometry">
            <mxPoint x="1" as="offset" />
          </mxGeometry>
        </mxCell>
        <mxCell id="Z68hn9O-Tgvw7mRsMY7y-89" value="" style="endArrow=classic;html=1;rounded=0;" edge="1" parent="1">
          <mxGeometry width="50" height="50" relative="1" as="geometry">
            <mxPoint x="1295" y="545" as="sourcePoint" />
            <mxPoint x="1320" y="522" as="targetPoint" />
          </mxGeometry>
        </mxCell>
        <mxCell id="Z68hn9O-Tgvw7mRsMY7y-90" value="&lt;font style=&quot;font-size: 15px;&quot;&gt;B8&lt;/font&gt;" style="edgeLabel;html=1;align=center;verticalAlign=middle;resizable=0;points=[];" connectable="0" vertex="1" parent="Z68hn9O-Tgvw7mRsMY7y-89">
          <mxGeometry x="-0.065" y="-4" relative="1" as="geometry">
            <mxPoint x="1" as="offset" />
          </mxGeometry>
        </mxCell>
        <mxCell id="Z68hn9O-Tgvw7mRsMY7y-91" value="&lt;span style=&quot;font-size: 22px;&quot;&gt;DIN&lt;/span&gt;" style="text;html=1;align=center;verticalAlign=middle;resizable=0;points=[];autosize=1;strokeColor=none;fillColor=none;" vertex="1" parent="1">
          <mxGeometry x="325" y="350" width="60" height="40" as="geometry" />
        </mxCell>
        <mxCell id="Z68hn9O-Tgvw7mRsMY7y-92" value="&lt;span style=&quot;font-size: 22px;&quot;&gt;DOUT&lt;/span&gt;" style="text;html=1;align=center;verticalAlign=middle;resizable=0;points=[];autosize=1;strokeColor=none;fillColor=none;" vertex="1" parent="1">
          <mxGeometry x="1520" y="605" width="90" height="40" as="geometry" />
        </mxCell>
        <mxCell id="Z68hn9O-Tgvw7mRsMY7y-104" value="" style="endArrow=classic;html=1;rounded=0;entryX=0.5;entryY=0;entryDx=0;entryDy=0;" edge="1" parent="1">
          <mxGeometry width="50" height="50" relative="1" as="geometry">
            <mxPoint x="1096.8600000000001" y="395" as="sourcePoint" />
            <mxPoint x="1096.8600000000001" y="475" as="targetPoint" />
          </mxGeometry>
        </mxCell>
        <mxCell id="Z68hn9O-Tgvw7mRsMY7y-117" value="" style="endArrow=classic;html=1;rounded=0;exitX=0.5;exitY=0;exitDx=0;exitDy=0;" edge="1" parent="1">
          <mxGeometry width="50" height="50" relative="1" as="geometry">
            <mxPoint x="700" y="394.73" as="sourcePoint" />
            <mxPoint x="780" y="395.23" as="targetPoint" />
          </mxGeometry>
        </mxCell>
        <mxCell id="Z68hn9O-Tgvw7mRsMY7y-130" value="" style="rounded=1;whiteSpace=wrap;html=1;direction=south;" vertex="1" parent="1">
          <mxGeometry x="1140" y="355" width="40" height="80" as="geometry" />
        </mxCell>
        <mxCell id="Z68hn9O-Tgvw7mRsMY7y-131" value="en" style="text;html=1;align=center;verticalAlign=middle;whiteSpace=wrap;rounded=0;" vertex="1" parent="1">
          <mxGeometry x="1120" y="400" width="60" height="30" as="geometry" />
        </mxCell>
        <mxCell id="Z68hn9O-Tgvw7mRsMY7y-132" value="rst" style="text;html=1;align=center;verticalAlign=middle;whiteSpace=wrap;rounded=0;" vertex="1" parent="1">
          <mxGeometry x="1140" y="400" width="60" height="30" as="geometry" />
        </mxCell>
        <mxCell id="Z68hn9O-Tgvw7mRsMY7y-133" value="" style="triangle;whiteSpace=wrap;html=1;rotation=-90;" vertex="1" parent="1">
          <mxGeometry x="1155" y="420" width="10" height="20" as="geometry" />
        </mxCell>
        <mxCell id="Z68hn9O-Tgvw7mRsMY7y-138" value="" style="endArrow=classic;html=1;rounded=0;exitX=0.5;exitY=0;exitDx=0;exitDy=0;entryX=0.5;entryY=1;entryDx=0;entryDy=0;" edge="1" parent="1" target="Z68hn9O-Tgvw7mRsMY7y-130">
          <mxGeometry width="50" height="50" relative="1" as="geometry">
            <mxPoint x="1052" y="394.73" as="sourcePoint" />
            <mxPoint x="1140" y="400" as="targetPoint" />
          </mxGeometry>
        </mxCell>
        <mxCell id="Z68hn9O-Tgvw7mRsMY7y-139" value="" style="endArrow=none;html=1;rounded=0;strokeColor=#B20000;fillColor=#e51400;exitX=1;exitY=0.5;exitDx=0;exitDy=0;" edge="1" parent="1" source="Z68hn9O-Tgvw7mRsMY7y-154">
          <mxGeometry width="50" height="50" relative="1" as="geometry">
            <mxPoint x="250" y="450" as="sourcePoint" />
            <mxPoint x="1280" y="450" as="targetPoint" />
          </mxGeometry>
        </mxCell>
        <mxCell id="Z68hn9O-Tgvw7mRsMY7y-140" value="" style="endArrow=classic;html=1;rounded=0;entryX=0;entryY=0.5;entryDx=0;entryDy=0;strokeColor=#B20000;fillColor=#e51400;" edge="1" parent="1">
          <mxGeometry width="50" height="50" relative="1" as="geometry">
            <mxPoint x="1280" y="450" as="sourcePoint" />
            <mxPoint x="1280" y="435" as="targetPoint" />
          </mxGeometry>
        </mxCell>
        <mxCell id="Z68hn9O-Tgvw7mRsMY7y-141" value="" style="endArrow=classic;html=1;rounded=0;entryX=0;entryY=0.5;entryDx=0;entryDy=0;strokeColor=#B20000;fillColor=#e51400;" edge="1" parent="1" target="Z68hn9O-Tgvw7mRsMY7y-133">
          <mxGeometry width="50" height="50" relative="1" as="geometry">
            <mxPoint x="1160" y="450" as="sourcePoint" />
            <mxPoint x="1240" y="450" as="targetPoint" />
          </mxGeometry>
        </mxCell>
        <mxCell id="Z68hn9O-Tgvw7mRsMY7y-147" value="" style="endArrow=classic;html=1;rounded=0;entryX=0;entryY=0.5;entryDx=0;entryDy=0;strokeColor=#B20000;fillColor=#e51400;" edge="1" parent="1">
          <mxGeometry width="50" height="50" relative="1" as="geometry">
            <mxPoint x="1032" y="450" as="sourcePoint" />
            <mxPoint x="1032" y="435" as="targetPoint" />
          </mxGeometry>
        </mxCell>
        <mxCell id="Z68hn9O-Tgvw7mRsMY7y-148" value="" style="endArrow=classic;html=1;rounded=0;entryX=0;entryY=0.5;entryDx=0;entryDy=0;strokeColor=#B20000;fillColor=#e51400;" edge="1" parent="1">
          <mxGeometry width="50" height="50" relative="1" as="geometry">
            <mxPoint x="920" y="450" as="sourcePoint" />
            <mxPoint x="920" y="435" as="targetPoint" />
          </mxGeometry>
        </mxCell>
        <mxCell id="Z68hn9O-Tgvw7mRsMY7y-149" value="" style="endArrow=classic;html=1;rounded=0;entryX=0;entryY=0.5;entryDx=0;entryDy=0;strokeColor=#B20000;fillColor=#e51400;" edge="1" parent="1">
          <mxGeometry width="50" height="50" relative="1" as="geometry">
            <mxPoint x="800" y="450" as="sourcePoint" />
            <mxPoint x="800" y="435" as="targetPoint" />
          </mxGeometry>
        </mxCell>
        <mxCell id="Z68hn9O-Tgvw7mRsMY7y-150" value="" style="endArrow=classic;html=1;rounded=0;entryX=0;entryY=0.5;entryDx=0;entryDy=0;strokeColor=#B20000;fillColor=#e51400;" edge="1" parent="1">
          <mxGeometry width="50" height="50" relative="1" as="geometry">
            <mxPoint x="680" y="450" as="sourcePoint" />
            <mxPoint x="680" y="435" as="targetPoint" />
          </mxGeometry>
        </mxCell>
        <mxCell id="Z68hn9O-Tgvw7mRsMY7y-151" value="" style="endArrow=classic;html=1;rounded=0;entryX=0;entryY=0.5;entryDx=0;entryDy=0;strokeColor=#B20000;fillColor=#e51400;" edge="1" parent="1">
          <mxGeometry width="50" height="50" relative="1" as="geometry">
            <mxPoint x="560" y="450" as="sourcePoint" />
            <mxPoint x="560" y="435" as="targetPoint" />
          </mxGeometry>
        </mxCell>
        <mxCell id="Z68hn9O-Tgvw7mRsMY7y-152" value="" style="endArrow=classic;html=1;rounded=0;entryX=0;entryY=0.5;entryDx=0;entryDy=0;strokeColor=#B20000;fillColor=#e51400;" edge="1" parent="1">
          <mxGeometry width="50" height="50" relative="1" as="geometry">
            <mxPoint x="435" y="450" as="sourcePoint" />
            <mxPoint x="435" y="435" as="targetPoint" />
          </mxGeometry>
        </mxCell>
        <mxCell id="Z68hn9O-Tgvw7mRsMY7y-153" value="&lt;span style=&quot;font-size: 22px;&quot;&gt;clk&lt;/span&gt;" style="text;html=1;align=center;verticalAlign=middle;resizable=0;points=[];autosize=1;strokeColor=none;fillColor=none;" vertex="1" parent="1">
          <mxGeometry x="240" y="420" width="50" height="40" as="geometry" />
        </mxCell>
        <mxCell id="Z68hn9O-Tgvw7mRsMY7y-154" value="" style="triangle;whiteSpace=wrap;html=1;" vertex="1" parent="1">
          <mxGeometry x="80" y="440" width="10" height="20" as="geometry" />
        </mxCell>
        <mxCell id="Z68hn9O-Tgvw7mRsMY7y-155" value="" style="rounded=1;whiteSpace=wrap;html=1;direction=south;" vertex="1" parent="1">
          <mxGeometry x="160" y="190" width="150" height="140" as="geometry" />
        </mxCell>
        <mxCell id="Z68hn9O-Tgvw7mRsMY7y-162" value="" style="triangle;whiteSpace=wrap;html=1;rotation=-90;" vertex="1" parent="1">
          <mxGeometry x="225" y="310" width="20" height="20" as="geometry" />
        </mxCell>
        <mxCell id="Z68hn9O-Tgvw7mRsMY7y-163" value="VIN" style="text;html=1;align=center;verticalAlign=middle;whiteSpace=wrap;rounded=0;" vertex="1" parent="1">
          <mxGeometry x="150" y="205" width="60" height="30" as="geometry" />
        </mxCell>
        <mxCell id="Z68hn9O-Tgvw7mRsMY7y-164" value="VOUT" style="text;html=1;align=center;verticalAlign=middle;whiteSpace=wrap;rounded=0;" vertex="1" parent="1">
          <mxGeometry x="265" y="205" width="60" height="30" as="geometry" />
        </mxCell>
        <mxCell id="Z68hn9O-Tgvw7mRsMY7y-165" value="RST" style="text;html=1;align=center;verticalAlign=middle;whiteSpace=wrap;rounded=0;" vertex="1" parent="1">
          <mxGeometry x="150" y="275" width="60" height="30" as="geometry" />
        </mxCell>
        <mxCell id="Z68hn9O-Tgvw7mRsMY7y-166" value="&lt;span style=&quot;font-size: 22px;&quot;&gt;CU&lt;/span&gt;" style="text;html=1;align=center;verticalAlign=middle;resizable=0;points=[];autosize=1;strokeColor=none;fillColor=none;" vertex="1" parent="1">
          <mxGeometry x="205" y="240" width="60" height="40" as="geometry" />
        </mxCell>
        <mxCell id="Z68hn9O-Tgvw7mRsMY7y-167" value="" style="endArrow=classic;html=1;rounded=0;entryX=1;entryY=0.5;entryDx=0;entryDy=0;strokeColor=#B20000;fillColor=#e51400;" edge="1" parent="1" target="Z68hn9O-Tgvw7mRsMY7y-155">
          <mxGeometry width="50" height="50" relative="1" as="geometry">
            <mxPoint x="295" y="450" as="sourcePoint" />
            <mxPoint x="670" y="420" as="targetPoint" />
            <Array as="points">
              <mxPoint x="295" y="430" />
              <mxPoint x="235" y="430" />
            </Array>
          </mxGeometry>
        </mxCell>
        <mxCell id="Z68hn9O-Tgvw7mRsMY7y-168" value="EN" style="text;html=1;align=center;verticalAlign=middle;whiteSpace=wrap;rounded=0;" vertex="1" parent="1">
          <mxGeometry x="260" y="275" width="60" height="30" as="geometry" />
        </mxCell>
        <mxCell id="Z68hn9O-Tgvw7mRsMY7y-173" value="" style="endArrow=none;html=1;rounded=0;entryX=0;entryY=0.5;entryDx=0;entryDy=0;fillColor=#1ba1e2;strokeColor=#006EAF;" edge="1" parent="1">
          <mxGeometry width="50" height="50" relative="1" as="geometry">
            <mxPoint x="310" y="290" as="sourcePoint" />
            <mxPoint x="1110" y="415" as="targetPoint" />
            <Array as="points">
              <mxPoint x="1110" y="290" />
            </Array>
          </mxGeometry>
        </mxCell>
        <mxCell id="Z68hn9O-Tgvw7mRsMY7y-174" value="" style="endArrow=classic;html=1;rounded=0;entryX=0;entryY=0.5;entryDx=0;entryDy=0;fillColor=#1ba1e2;strokeColor=#006EAF;" edge="1" parent="1" target="Z68hn9O-Tgvw7mRsMY7y-132">
          <mxGeometry width="50" height="50" relative="1" as="geometry">
            <mxPoint x="1110" y="415" as="sourcePoint" />
            <mxPoint x="680" y="370" as="targetPoint" />
          </mxGeometry>
        </mxCell>
        <mxCell id="Z68hn9O-Tgvw7mRsMY7y-177" value="" style="rounded=1;whiteSpace=wrap;html=1;direction=south;" vertex="1" parent="1">
          <mxGeometry x="1260" y="355" width="40" height="80" as="geometry" />
        </mxCell>
        <mxCell id="Z68hn9O-Tgvw7mRsMY7y-178" value="en" style="text;html=1;align=center;verticalAlign=middle;whiteSpace=wrap;rounded=0;" vertex="1" parent="1">
          <mxGeometry x="1240" y="400" width="60" height="30" as="geometry" />
        </mxCell>
        <mxCell id="Z68hn9O-Tgvw7mRsMY7y-179" value="rst" style="text;html=1;align=center;verticalAlign=middle;whiteSpace=wrap;rounded=0;" vertex="1" parent="1">
          <mxGeometry x="1260" y="400" width="60" height="30" as="geometry" />
        </mxCell>
        <mxCell id="Z68hn9O-Tgvw7mRsMY7y-180" value="" style="triangle;whiteSpace=wrap;html=1;rotation=-90;" vertex="1" parent="1">
          <mxGeometry x="1275" y="420" width="10" height="20" as="geometry" />
        </mxCell>
        <mxCell id="Z68hn9O-Tgvw7mRsMY7y-181" value="" style="rounded=1;whiteSpace=wrap;html=1;direction=south;" vertex="1" parent="1">
          <mxGeometry x="1012" y="355" width="40" height="80" as="geometry" />
        </mxCell>
        <mxCell id="Z68hn9O-Tgvw7mRsMY7y-182" value="en" style="text;html=1;align=center;verticalAlign=middle;whiteSpace=wrap;rounded=0;" vertex="1" parent="1">
          <mxGeometry x="992" y="400" width="60" height="30" as="geometry" />
        </mxCell>
        <mxCell id="Z68hn9O-Tgvw7mRsMY7y-183" value="rst" style="text;html=1;align=center;verticalAlign=middle;whiteSpace=wrap;rounded=0;" vertex="1" parent="1">
          <mxGeometry x="1012" y="400" width="60" height="30" as="geometry" />
        </mxCell>
        <mxCell id="Z68hn9O-Tgvw7mRsMY7y-184" value="" style="triangle;whiteSpace=wrap;html=1;rotation=-90;" vertex="1" parent="1">
          <mxGeometry x="1027" y="420" width="10" height="20" as="geometry" />
        </mxCell>
        <mxCell id="Z68hn9O-Tgvw7mRsMY7y-185" value="" style="rounded=1;whiteSpace=wrap;html=1;direction=south;" vertex="1" parent="1">
          <mxGeometry x="900" y="355" width="40" height="80" as="geometry" />
        </mxCell>
        <mxCell id="Z68hn9O-Tgvw7mRsMY7y-186" value="en" style="text;html=1;align=center;verticalAlign=middle;whiteSpace=wrap;rounded=0;" vertex="1" parent="1">
          <mxGeometry x="880" y="400" width="60" height="30" as="geometry" />
        </mxCell>
        <mxCell id="Z68hn9O-Tgvw7mRsMY7y-187" value="rst" style="text;html=1;align=center;verticalAlign=middle;whiteSpace=wrap;rounded=0;" vertex="1" parent="1">
          <mxGeometry x="900" y="400" width="60" height="30" as="geometry" />
        </mxCell>
        <mxCell id="Z68hn9O-Tgvw7mRsMY7y-188" value="" style="triangle;whiteSpace=wrap;html=1;rotation=-90;" vertex="1" parent="1">
          <mxGeometry x="915" y="420" width="10" height="20" as="geometry" />
        </mxCell>
        <mxCell id="Z68hn9O-Tgvw7mRsMY7y-189" value="" style="rounded=1;whiteSpace=wrap;html=1;direction=south;" vertex="1" parent="1">
          <mxGeometry x="780" y="355" width="40" height="80" as="geometry" />
        </mxCell>
        <mxCell id="Z68hn9O-Tgvw7mRsMY7y-190" value="en" style="text;html=1;align=center;verticalAlign=middle;whiteSpace=wrap;rounded=0;" vertex="1" parent="1">
          <mxGeometry x="760" y="400" width="60" height="30" as="geometry" />
        </mxCell>
        <mxCell id="Z68hn9O-Tgvw7mRsMY7y-191" value="rst" style="text;html=1;align=center;verticalAlign=middle;whiteSpace=wrap;rounded=0;" vertex="1" parent="1">
          <mxGeometry x="780" y="400" width="60" height="30" as="geometry" />
        </mxCell>
        <mxCell id="Z68hn9O-Tgvw7mRsMY7y-192" value="" style="triangle;whiteSpace=wrap;html=1;rotation=-90;" vertex="1" parent="1">
          <mxGeometry x="795" y="420" width="10" height="20" as="geometry" />
        </mxCell>
        <mxCell id="Z68hn9O-Tgvw7mRsMY7y-193" value="" style="rounded=1;whiteSpace=wrap;html=1;direction=south;" vertex="1" parent="1">
          <mxGeometry x="665" y="355" width="40" height="80" as="geometry" />
        </mxCell>
        <mxCell id="Z68hn9O-Tgvw7mRsMY7y-194" value="en" style="text;html=1;align=center;verticalAlign=middle;whiteSpace=wrap;rounded=0;" vertex="1" parent="1">
          <mxGeometry x="645" y="400" width="60" height="30" as="geometry" />
        </mxCell>
        <mxCell id="Z68hn9O-Tgvw7mRsMY7y-195" value="rst" style="text;html=1;align=center;verticalAlign=middle;whiteSpace=wrap;rounded=0;" vertex="1" parent="1">
          <mxGeometry x="665" y="400" width="60" height="30" as="geometry" />
        </mxCell>
        <mxCell id="Z68hn9O-Tgvw7mRsMY7y-196" value="" style="triangle;whiteSpace=wrap;html=1;rotation=-90;" vertex="1" parent="1">
          <mxGeometry x="680" y="420" width="10" height="20" as="geometry" />
        </mxCell>
        <mxCell id="Z68hn9O-Tgvw7mRsMY7y-197" value="" style="rounded=1;whiteSpace=wrap;html=1;direction=south;" vertex="1" parent="1">
          <mxGeometry x="540" y="355" width="40" height="80" as="geometry" />
        </mxCell>
        <mxCell id="Z68hn9O-Tgvw7mRsMY7y-198" value="en" style="text;html=1;align=center;verticalAlign=middle;whiteSpace=wrap;rounded=0;" vertex="1" parent="1">
          <mxGeometry x="520" y="400" width="60" height="30" as="geometry" />
        </mxCell>
        <mxCell id="Z68hn9O-Tgvw7mRsMY7y-199" value="rst" style="text;html=1;align=center;verticalAlign=middle;whiteSpace=wrap;rounded=0;" vertex="1" parent="1">
          <mxGeometry x="540" y="400" width="60" height="30" as="geometry" />
        </mxCell>
        <mxCell id="Z68hn9O-Tgvw7mRsMY7y-200" value="" style="triangle;whiteSpace=wrap;html=1;rotation=-90;" vertex="1" parent="1">
          <mxGeometry x="555" y="420" width="10" height="20" as="geometry" />
        </mxCell>
        <mxCell id="Z68hn9O-Tgvw7mRsMY7y-201" value="" style="rounded=1;whiteSpace=wrap;html=1;direction=south;" vertex="1" parent="1">
          <mxGeometry x="420" y="355" width="40" height="80" as="geometry" />
        </mxCell>
        <mxCell id="Z68hn9O-Tgvw7mRsMY7y-202" value="en" style="text;html=1;align=center;verticalAlign=middle;whiteSpace=wrap;rounded=0;" vertex="1" parent="1">
          <mxGeometry x="400" y="400" width="60" height="30" as="geometry" />
        </mxCell>
        <mxCell id="Z68hn9O-Tgvw7mRsMY7y-203" value="rst" style="text;html=1;align=center;verticalAlign=middle;whiteSpace=wrap;rounded=0;" vertex="1" parent="1">
          <mxGeometry x="420" y="400" width="60" height="30" as="geometry" />
        </mxCell>
        <mxCell id="Z68hn9O-Tgvw7mRsMY7y-204" value="" style="triangle;whiteSpace=wrap;html=1;rotation=-90;" vertex="1" parent="1">
          <mxGeometry x="435" y="420" width="10" height="20" as="geometry" />
        </mxCell>
        <mxCell id="Z68hn9O-Tgvw7mRsMY7y-205" value="" style="endArrow=none;html=1;rounded=0;entryX=0;entryY=0.5;entryDx=0;entryDy=0;fillColor=#1ba1e2;strokeColor=#006EAF;" edge="1" parent="1" target="Z68hn9O-Tgvw7mRsMY7y-178">
          <mxGeometry width="50" height="50" relative="1" as="geometry">
            <mxPoint x="1110" y="290" as="sourcePoint" />
            <mxPoint x="960" y="450" as="targetPoint" />
            <Array as="points">
              <mxPoint x="1240" y="290" />
            </Array>
          </mxGeometry>
        </mxCell>
        <mxCell id="Z68hn9O-Tgvw7mRsMY7y-206" value="" style="endArrow=classic;html=1;rounded=0;entryX=0;entryY=0.5;entryDx=0;entryDy=0;exitX=0;exitY=0.5;exitDx=0;exitDy=0;fillColor=#1ba1e2;strokeColor=#006EAF;" edge="1" parent="1" source="Z68hn9O-Tgvw7mRsMY7y-178" target="Z68hn9O-Tgvw7mRsMY7y-179">
          <mxGeometry width="50" height="50" relative="1" as="geometry">
            <mxPoint x="1120" y="420" as="sourcePoint" />
            <mxPoint x="1140" y="420" as="targetPoint" />
          </mxGeometry>
        </mxCell>
        <mxCell id="Z68hn9O-Tgvw7mRsMY7y-208" value="" style="endArrow=classic;html=1;rounded=0;entryX=0;entryY=0.5;entryDx=0;entryDy=0;fillColor=#1ba1e2;strokeColor=#006EAF;" edge="1" parent="1">
          <mxGeometry width="50" height="50" relative="1" as="geometry">
            <mxPoint x="990" y="290" as="sourcePoint" />
            <mxPoint x="1012" y="405" as="targetPoint" />
            <Array as="points">
              <mxPoint x="990" y="405" />
            </Array>
          </mxGeometry>
        </mxCell>
        <mxCell id="Z68hn9O-Tgvw7mRsMY7y-209" value="" style="endArrow=classic;html=1;rounded=0;entryX=-0.014;entryY=0.583;entryDx=0;entryDy=0;fillColor=#1ba1e2;strokeColor=#006EAF;entryPerimeter=0;" edge="1" parent="1" target="Z68hn9O-Tgvw7mRsMY7y-187">
          <mxGeometry width="50" height="50" relative="1" as="geometry">
            <mxPoint x="872" y="290" as="sourcePoint" />
            <mxPoint x="892" y="420" as="targetPoint" />
            <Array as="points">
              <mxPoint x="872" y="417" />
            </Array>
          </mxGeometry>
        </mxCell>
        <mxCell id="Z68hn9O-Tgvw7mRsMY7y-210" value="" style="endArrow=classic;html=1;rounded=0;entryX=0;entryY=0.5;entryDx=0;entryDy=0;fillColor=#1ba1e2;strokeColor=#006EAF;" edge="1" parent="1">
          <mxGeometry width="50" height="50" relative="1" as="geometry">
            <mxPoint x="760" y="290" as="sourcePoint" />
            <mxPoint x="780" y="415" as="targetPoint" />
            <Array as="points">
              <mxPoint x="758" y="415" />
            </Array>
          </mxGeometry>
        </mxCell>
        <mxCell id="Z68hn9O-Tgvw7mRsMY7y-211" value="" style="endArrow=classic;html=1;rounded=0;entryX=0;entryY=0.5;entryDx=0;entryDy=0;fillColor=#1ba1e2;strokeColor=#006EAF;" edge="1" parent="1">
          <mxGeometry width="50" height="50" relative="1" as="geometry">
            <mxPoint x="643" y="290" as="sourcePoint" />
            <mxPoint x="665" y="415" as="targetPoint" />
            <Array as="points">
              <mxPoint x="643" y="415" />
            </Array>
          </mxGeometry>
        </mxCell>
        <mxCell id="Z68hn9O-Tgvw7mRsMY7y-212" value="" style="endArrow=classic;html=1;rounded=0;entryX=0;entryY=0.5;entryDx=0;entryDy=0;fillColor=#1ba1e2;strokeColor=#006EAF;" edge="1" parent="1">
          <mxGeometry width="50" height="50" relative="1" as="geometry">
            <mxPoint x="518" y="290" as="sourcePoint" />
            <mxPoint x="540" y="415" as="targetPoint" />
            <Array as="points">
              <mxPoint x="518" y="415" />
            </Array>
          </mxGeometry>
        </mxCell>
        <mxCell id="Z68hn9O-Tgvw7mRsMY7y-213" value="" style="endArrow=classic;html=1;rounded=0;entryX=0;entryY=0.5;entryDx=0;entryDy=0;fillColor=#1ba1e2;strokeColor=#006EAF;" edge="1" parent="1">
          <mxGeometry width="50" height="50" relative="1" as="geometry">
            <mxPoint x="398" y="290" as="sourcePoint" />
            <mxPoint x="420" y="415" as="targetPoint" />
            <Array as="points">
              <mxPoint x="398" y="415" />
            </Array>
          </mxGeometry>
        </mxCell>
        <mxCell id="Z68hn9O-Tgvw7mRsMY7y-214" value="" style="endArrow=classic;html=1;rounded=0;entryX=0.173;entryY=1.015;entryDx=0;entryDy=0;entryPerimeter=0;" edge="1" parent="1">
          <mxGeometry width="50" height="50" relative="1" as="geometry">
            <mxPoint x="79.98" y="219.7" as="sourcePoint" />
            <mxPoint x="157.75" y="219.21999999999997" as="targetPoint" />
          </mxGeometry>
        </mxCell>
        <mxCell id="Z68hn9O-Tgvw7mRsMY7y-215" value="" style="triangle;whiteSpace=wrap;html=1;" vertex="1" parent="1">
          <mxGeometry x="70" y="210" width="10" height="20" as="geometry" />
        </mxCell>
        <mxCell id="Z68hn9O-Tgvw7mRsMY7y-216" value="VIN" style="text;html=1;align=center;verticalAlign=middle;whiteSpace=wrap;rounded=0;" vertex="1" parent="1">
          <mxGeometry x="60" y="190" width="60" height="30" as="geometry" />
        </mxCell>
        <mxCell id="Z68hn9O-Tgvw7mRsMY7y-217" value="" style="endArrow=none;html=1;rounded=0;exitX=0.695;exitY=1.106;exitDx=0;exitDy=0;exitPerimeter=0;" edge="1" parent="1">
          <mxGeometry width="50" height="50" relative="1" as="geometry">
            <mxPoint x="101.69999999999999" y="228.18" as="sourcePoint" />
            <mxPoint x="120" y="210" as="targetPoint" />
          </mxGeometry>
        </mxCell>
        <mxCell id="Z68hn9O-Tgvw7mRsMY7y-218" value="1 bit" style="text;html=1;align=center;verticalAlign=middle;whiteSpace=wrap;rounded=0;" vertex="1" parent="1">
          <mxGeometry x="80" y="215" width="60" height="30" as="geometry" />
        </mxCell>
        <mxCell id="Z68hn9O-Tgvw7mRsMY7y-220" value="VOUT" style="text;html=1;align=center;verticalAlign=middle;whiteSpace=wrap;rounded=0;" vertex="1" parent="1">
          <mxGeometry x="1510" y="225" width="60" height="30" as="geometry" />
        </mxCell>
        <mxCell id="Z68hn9O-Tgvw7mRsMY7y-221" value="" style="endArrow=none;html=1;rounded=0;fillColor=#f0a30a;strokeColor=#BD7000;exitX=0.003;exitY=0.605;exitDx=0;exitDy=0;exitPerimeter=0;entryX=1;entryY=0.5;entryDx=0;entryDy=0;" edge="1" parent="1" target="Z68hn9O-Tgvw7mRsMY7y-179">
          <mxGeometry width="50" height="50" relative="1" as="geometry">
            <mxPoint x="160.17999999999995" y="288.1500000000001" as="sourcePoint" />
            <mxPoint x="1320" y="410" as="targetPoint" />
            <Array as="points">
              <mxPoint x="120" y="288" />
              <mxPoint x="120" y="350" />
              <mxPoint x="720" y="350" />
              <mxPoint x="1320" y="350" />
            </Array>
          </mxGeometry>
        </mxCell>
        <mxCell id="Z68hn9O-Tgvw7mRsMY7y-223" value="" style="endArrow=classic;html=1;rounded=0;exitX=1;exitY=0.5;exitDx=0;exitDy=0;fillColor=#f0a30a;strokeColor=#BD7000;" edge="1" parent="1">
          <mxGeometry width="50" height="50" relative="1" as="geometry">
            <mxPoint x="1320" y="414.78999999999996" as="sourcePoint" />
            <mxPoint x="1300" y="415" as="targetPoint" />
          </mxGeometry>
        </mxCell>
        <mxCell id="Z68hn9O-Tgvw7mRsMY7y-226" value="" style="endArrow=classic;html=1;rounded=0;exitX=1;exitY=0.5;exitDx=0;exitDy=0;fillColor=#f0a30a;strokeColor=#BD7000;" edge="1" parent="1" source="Z68hn9O-Tgvw7mRsMY7y-132">
          <mxGeometry width="50" height="50" relative="1" as="geometry">
            <mxPoint x="1197" y="415" as="sourcePoint" />
            <mxPoint x="1179.997142857143" y="414.91" as="targetPoint" />
          </mxGeometry>
        </mxCell>
        <mxCell id="Z68hn9O-Tgvw7mRsMY7y-227" value="" style="endArrow=none;html=1;rounded=0;exitX=1;exitY=0.5;exitDx=0;exitDy=0;fillColor=#f0a30a;strokeColor=#BD7000;" edge="1" parent="1" source="Z68hn9O-Tgvw7mRsMY7y-132">
          <mxGeometry width="50" height="50" relative="1" as="geometry">
            <mxPoint x="1167" y="400" as="sourcePoint" />
            <mxPoint x="1200" y="350" as="targetPoint" />
          </mxGeometry>
        </mxCell>
        <mxCell id="Z68hn9O-Tgvw7mRsMY7y-228" value="" style="endArrow=classic;html=1;rounded=0;entryX=0.188;entryY=-0.009;entryDx=0;entryDy=0;entryPerimeter=0;fillColor=#f0a30a;strokeColor=#BD7000;" edge="1" parent="1">
          <mxGeometry width="50" height="50" relative="1" as="geometry">
            <mxPoint x="1080" y="350" as="sourcePoint" />
            <mxPoint x="1052" y="414.92999999999995" as="targetPoint" />
            <Array as="points">
              <mxPoint x="1080" y="415" />
            </Array>
          </mxGeometry>
        </mxCell>
        <mxCell id="Z68hn9O-Tgvw7mRsMY7y-231" value="" style="endArrow=classic;html=1;rounded=0;entryX=0.188;entryY=-0.009;entryDx=0;entryDy=0;entryPerimeter=0;fillColor=#f0a30a;strokeColor=#BD7000;" edge="1" parent="1">
          <mxGeometry width="50" height="50" relative="1" as="geometry">
            <mxPoint x="970" y="350" as="sourcePoint" />
            <mxPoint x="940" y="414.92999999999995" as="targetPoint" />
            <Array as="points">
              <mxPoint x="970" y="415" />
            </Array>
          </mxGeometry>
        </mxCell>
        <mxCell id="Z68hn9O-Tgvw7mRsMY7y-232" value="" style="endArrow=classic;html=1;rounded=0;entryX=0.188;entryY=-0.009;entryDx=0;entryDy=0;entryPerimeter=0;fillColor=#f0a30a;strokeColor=#BD7000;" edge="1" parent="1">
          <mxGeometry width="50" height="50" relative="1" as="geometry">
            <mxPoint x="850" y="350" as="sourcePoint" />
            <mxPoint x="820" y="414.92999999999995" as="targetPoint" />
            <Array as="points">
              <mxPoint x="850" y="415" />
            </Array>
          </mxGeometry>
        </mxCell>
        <mxCell id="Z68hn9O-Tgvw7mRsMY7y-233" value="" style="endArrow=classic;html=1;rounded=0;entryX=0.188;entryY=-0.009;entryDx=0;entryDy=0;entryPerimeter=0;fillColor=#f0a30a;strokeColor=#BD7000;" edge="1" parent="1">
          <mxGeometry width="50" height="50" relative="1" as="geometry">
            <mxPoint x="720" y="350" as="sourcePoint" />
            <mxPoint x="705" y="414.92999999999995" as="targetPoint" />
            <Array as="points">
              <mxPoint x="720" y="415" />
            </Array>
          </mxGeometry>
        </mxCell>
        <mxCell id="Z68hn9O-Tgvw7mRsMY7y-234" value="" style="endArrow=classic;html=1;rounded=0;entryX=0.188;entryY=-0.009;entryDx=0;entryDy=0;entryPerimeter=0;fillColor=#f0a30a;strokeColor=#BD7000;" edge="1" parent="1">
          <mxGeometry width="50" height="50" relative="1" as="geometry">
            <mxPoint x="610" y="350" as="sourcePoint" />
            <mxPoint x="580" y="414.92999999999995" as="targetPoint" />
            <Array as="points">
              <mxPoint x="610" y="415" />
            </Array>
          </mxGeometry>
        </mxCell>
        <mxCell id="Z68hn9O-Tgvw7mRsMY7y-235" value="" style="endArrow=classic;html=1;rounded=0;entryX=0.188;entryY=-0.009;entryDx=0;entryDy=0;entryPerimeter=0;fillColor=#f0a30a;strokeColor=#BD7000;" edge="1" parent="1">
          <mxGeometry width="50" height="50" relative="1" as="geometry">
            <mxPoint x="490" y="350" as="sourcePoint" />
            <mxPoint x="460" y="414.92999999999995" as="targetPoint" />
            <Array as="points">
              <mxPoint x="490" y="415" />
            </Array>
          </mxGeometry>
        </mxCell>
        <mxCell id="Z68hn9O-Tgvw7mRsMY7y-242" value="" style="triangle;whiteSpace=wrap;html=1;" vertex="1" parent="1">
          <mxGeometry x="80" y="385" width="10" height="20" as="geometry" />
        </mxCell>
        <mxCell id="Z68hn9O-Tgvw7mRsMY7y-246" value="" style="endArrow=none;html=1;rounded=0;exitX=1;exitY=0.5;exitDx=0;exitDy=0;entryX=1;entryY=0.5;entryDx=0;entryDy=0;" edge="1" parent="1" source="Z68hn9O-Tgvw7mRsMY7y-65" target="Z68hn9O-Tgvw7mRsMY7y-247">
          <mxGeometry width="50" height="50" relative="1" as="geometry">
            <mxPoint x="1370" y="470" as="sourcePoint" />
            <mxPoint x="1500" y="630" as="targetPoint" />
          </mxGeometry>
        </mxCell>
        <mxCell id="Z68hn9O-Tgvw7mRsMY7y-247" value="" style="triangle;whiteSpace=wrap;html=1;rotation=-180;" vertex="1" parent="1">
          <mxGeometry x="1510" y="620" width="10" height="20" as="geometry" />
        </mxCell>
        <mxCell id="Z68hn9O-Tgvw7mRsMY7y-248" value="" style="triangle;whiteSpace=wrap;html=1;rotation=-180;" vertex="1" parent="1">
          <mxGeometry x="1510" y="230" width="10" height="20" as="geometry" />
        </mxCell>
        <mxCell id="Z68hn9O-Tgvw7mRsMY7y-249" value="" style="endArrow=none;html=1;rounded=0;entryX=1;entryY=0.5;entryDx=0;entryDy=0;" edge="1" parent="1" target="Z68hn9O-Tgvw7mRsMY7y-248">
          <mxGeometry width="50" height="50" relative="1" as="geometry">
            <mxPoint x="309.99727272727273" y="240" as="sourcePoint" />
            <mxPoint x="1190" y="240" as="targetPoint" />
          </mxGeometry>
        </mxCell>
      </root>
    </mxGraphModel>
  </diagram>
</mxfile>
